<svg xmlns="http://www.w3.org/2000/svg">
  <symbol id="icon-download" viewBox="0 0 24 24">
    <path d="M12 3v12M7 10l5 5 5-5M5 21h14" fill="none" stroke="currentColor" stroke-width="1.8" stroke-linecap="round" stroke-linejoin="round"/>
  </symbol>
  <symbol id="icon-github" viewBox="0 0 24 24">
    <path fill="currentColor" d="M12 .297c-6.63 0-12 5.373-12 12 0 5.303 3.438 9.8 8.205 11.385.6.113.82-.258.82-.577 0-.285-.01-1.04-.015-2.04-3.338.724-4.042-1.61-4.042-1.61C4.422 18.07 3.633 17.7 3.633 17.7c-1.087-.744.084-.729.084-.729 1.205.084 1.838 1.236 1.838 1.236 1.07 1.835 2.809 1.305 3.495.998.108-.776.417-1.305.76-1.605-2.665-.3-5.466-1.332-5.466-5.93 0-1.31.465-2.38 1.235-3.22-.135-.303-.54-1.523.105-3.176 0 0 1.005-.322 3.3 1.23.96-.267 1.98-.399 3-.405 1.02.006 2.04.138 3 .405 2.28-1.552 3.285-1.23 3.285-1.23.645 1.653.24 2.873.12 3.176.765.84 1.23 1.91 1.23 3.22 0 4.61-2.805 5.625-5.475 5.92.42.36.81 1.096.81 2.22 0 1.606-.015 2.896-.015 3.286 0 .315.21.69.825.57C20.565 22.092 24 17.592 24 12.297c0-6.627-5.373-12-12-12"/>
  </symbol>
  <symbol id="icon-apple" viewBox="0 0 24 24">
    <path fill="currentColor" d="M12.152 6.896c-.948 0-2.415-1.078-3.96-1.04-2.04.027-3.91 1.183-4.961 3.014-2.117 3.675-.546 9.103 1.519 12.09 1.013 1.454 2.208 3.09 3.792 3.039 1.52-.065 2.09-.987 3.935-.987 1.831 0 2.35.987 3.96.948 1.637-.026 2.676-1.48 3.676-2.948 1.156-1.688 1.636-3.325 1.662-3.415-.039-.013-3.182-1.221-3.22-4.857-.026-3.04 2.48-4.494 2.597-4.559-1.429-2.09-3.623-2.324-4.39-2.376-2-.156-3.675 1.09-4.61 1.09zM15.53 3.83c.843-1.012 1.4-2.427 1.245-3.83-1.207.052-2.662.805-3.532 1.818-.78.896-1.454 2.338-1.273 3.714 1.338.104 2.715-.688 3.559-1.701"/>
  </symbol>
  <symbol id="icon-windows" viewBox="0 0 24 24">
    <path fill="currentColor" d="M2 3.7 10.5 2.5v9H2V3.7Zm9.5-1.35L22 .85V11.5H11.5V2.35ZM2 12.5h8.5v9L2 20.3v-7.8Zm9.5 0H22v10.65l-10.5-1.5V12.5Z"/>
  </symbol>
  <symbol id="icon-linux" viewBox="0 0 24 24">
    <path fill="currentColor" d="M12.5 1.25c-2.3 0-3.15 1.95-3.15 4.2 0 1.7-.35 2.8-1.25 4.1-1.15 1.55-2.45 3.55-2.45 5.95 0 1.15.25 2.2.75 3.15-.65.55-1.25 1.3-1.25 2.15 0 1.35 1.35 1.95 2.6 1.95 1.05 0 1.95-.4 2.6-1.05.55.2 1.15.3 1.8.3.7 0 1.35-.1 1.95-.35.65.7 1.55 1.1 2.6 1.1 1.25 0 2.6-.6 2.6-1.95 0-.9-.65-1.65-1.3-2.2.45-.95.7-2 .7-3.1 0-2.3-1.25-4.25-2.35-5.75-.95-1.3-1.3-2.45-1.3-4.3 0-2.25-.8-4.2-3.05-4.2Zm-1.4 3.2c.55 0 .9.6.9 1.3s-.35 1.3-.9 1.3-.9-.6-.9-1.3.35-1.3.9-1.3Zm2.75 0c.55 0 .9.6.9 1.3s-.35 1.3-.9 1.3-.9-.6-.9-1.3.35-1.3.9-1.3ZM12.5 7c1.05 0 2.15.65 2.15 1.25 0 .55-1.1 1.45-2.15 1.45s-2.15-.9-2.15-1.45C10.35 7.65 11.45 7 12.5 7Zm-.1 3.8c2.3 0 3.85 2.2 3.85 4.75 0 2.6-1.55 4.65-3.85 4.65-2.25 0-3.8-2.05-3.8-4.65 0-2.55 1.55-4.75 3.8-4.75Z"/>
  </symbol>
  <symbol id="icon-key" viewBox="0 0 24 24">
    <path d="M15.5 7.5a5 5 0 1 1-1.4-1.4L22 6v4h-3v3h-3l-2.1-2.1" fill="none" stroke="currentColor" stroke-width="1.8" stroke-linecap="round" stroke-linejoin="round"/>
  </symbol>
  <symbol id="icon-shield-lock" viewBox="0 0 24 24">
    <path d="M20 13c0 4.7-3.2 7.3-8 9-4.8-1.7-8-4.3-8-9V5l8-3 8 3v8Z" fill="none" stroke="currentColor" stroke-width="1.7" stroke-linecap="round" stroke-linejoin="round"/>
    <path d="M9.5 11h5v4h-5zM10.5 11V9.5a1.5 1.5 0 0 1 3 0V11" fill="none" stroke="currentColor" stroke-width="1.5" stroke-linecap="round" stroke-linejoin="round"/>
  </symbol>
  <symbol id="icon-rotate" viewBox="0 0 24 24">
    <path d="M20 7v5h-5M4 17v-5h5M18.5 9A7 7 0 0 0 6 7M5.5 15A7 7 0 0 0 18 17" fill="none" stroke="currentColor" stroke-width="1.8" stroke-linecap="round" stroke-linejoin="round"/>
  </symbol>
</svg>
